<svg width="26" height="26" viewBox="0 0 26 26" fill="none" xmlns="http://www.w3.org/2000/svg">
<path d="M13 0C5.80078 0 0 5.80078 0 13C0 20.1992 5.80078 26 13 26C20.1992 26 26 20.1992 26 13C26 11.6016 25.8125 10.207 25.3125 8.90625L23.6875 10.5C23.8867 11.3008 24 12.1016 24 13C24 19.1016 19.1016 24 13 24C6.89844 24 2 19.1016 2 13C2 6.89844 6.89844 2 13 2C16 2 18.6953 3.19531 20.5938 5.09375L22 3.6875C19.6992 1.38672 16.5 0 13 0ZM24.2812 4.28125L13 15.5625L8.71875 11.2812L7.28125 12.7188L12.2812 17.7188L13 18.4062L13.7188 17.7188L25.7188 5.71875L24.2812 4.28125Z" fill="#28A745"/>
</svg>
