<svg width="18" height="27" viewBox="0 0 18 27" fill="none" xmlns="http://www.w3.org/2000/svg">
<path d="M9 0C4.04297 0 0 4.04297 0 9C0 10.4062 0.570313 12.0195 1.34375 13.7812C2.11719 15.543 3.11328 17.4141 4.125 19.1562C6.14844 22.6445 8.1875 25.5625 8.1875 25.5625L9 26.75L9.8125 25.5625C9.8125 25.5625 11.8516 22.6445 13.875 19.1562C14.8867 17.4141 15.8828 15.543 16.6562 13.7812C17.4297 12.0195 18 10.4062 18 9C18 4.04297 13.957 0 9 0ZM9 2C12.8789 2 16 5.12109 16 9C16 9.80078 15.5703 11.3164 14.8438 12.9688C14.1172 14.6211 13.1133 16.4531 12.125 18.1562C10.5547 20.8672 9.57812 22.3008 9 23.1562C8.42188 22.3008 7.44531 20.8672 5.875 18.1562C4.88672 16.4531 3.88281 14.6211 3.15625 12.9688C2.42969 11.3164 2 9.80078 2 9C2 5.12109 5.12109 2 9 2ZM9 7C7.89453 7 7 7.89453 7 9C7 10.1055 7.89453 11 9 11C10.1055 11 11 10.1055 11 9C11 7.89453 10.1055 7 9 7Z" fill="white"/>
</svg>
