<svg width="338" height="128" viewBox="0 0 338 128" fill="none" xmlns="http://www.w3.org/2000/svg">
<path d="M274 16C260.797 16 250 26.7969 250 40C250 44.0313 250.984 47.7813 252.75 51.125C245.453 49.3438 236.562 48 226 48H220.875L234.875 104H238C251.625 104 260 105.953 264.875 107.75C267.312 108.656 268.859 109.547 269.75 110.125C270.641 110.703 270.75 110.75 270.75 110.75L271.875 112H276.125L277.25 110.75C277.25 110.75 277.359 110.703 278.25 110.125C279.141 109.547 280.688 108.656 283.125 107.75C288 105.953 296.375 104 310 104H313.125L327.125 48H322C311.484 48 302.609 49.2656 295.375 51C297.094 47.7031 298 43.9688 298 40C298 26.7969 287.203 16 274 16ZM274 24C282.891 24 290 31.1094 290 40C290 48.8906 282.891 56 274 56C265.109 56 258 48.8906 258 40C258 31.1094 265.109 24 274 24ZM231.25 56.5C243.688 57.1094 253.844 59.2656 260.5 61.75C265.859 63.75 268.5 65.2969 270 66.25V101.25C269.281 100.922 268.625 100.578 267.75 100.25C262.344 98.25 253.469 96.5625 241.125 96.25L231.25 56.5ZM316.75 56.5L306.875 96.25C294.531 96.5625 285.656 98.25 280.25 100.25C279.375 100.578 278.719 100.922 278 101.25V66.25C279.5 65.2813 282.125 63.7188 287.375 61.75C293.984 59.2656 304.156 57.1094 316.75 56.5Z" fill="#1893FE"/>
<path d="M43.0664 82H40.1836C37.793 82 35.1211 80.5469 32.168 77.6406C30.2695 80.5469 27.4688 82 23.7656 82H4.14844L3.26953 75.6719H23.3789C25.6992 75.6719 26.8594 74.875 26.8594 73.2812C26.8594 72.3906 26.5312 71.6055 25.875 70.9258L11.6367 55.7734L15.9258 51.4844L34.9453 71.6289C36.6094 73.3867 37.7461 74.4414 38.3555 74.793C39.4102 75.3789 40.9805 75.6719 43.0664 75.6719V82ZM53.2617 52.1875C53.2617 53.4297 52.8281 54.4844 51.9609 55.3516C51.1172 56.2188 50.0859 56.6523 48.8672 56.6523C45.6562 56.6523 44.0508 55.1641 44.0508 52.1875C44.0508 49.6797 45.5742 48.4258 48.6211 48.4258C51.7148 48.4258 53.2617 49.6797 53.2617 52.1875ZM67.043 82H64.9688C60.9844 82 58.0547 81.1797 56.1797 79.5391C54.0703 81.1797 52.043 82 50.0977 82H39.6914V75.6719C46.2305 75.6719 49.9102 75.5195 50.7305 75.2148C52.1367 74.7227 52.8398 72.8477 52.8398 69.5898C52.8398 68.7695 52.8281 67.5273 52.8047 65.8633C52.7812 64.1992 52.7695 62.957 52.7695 62.1367H59.168V70.8203C59.168 73.9375 61.793 75.5547 67.043 75.6719V82ZM87.2578 71.6992C87.2578 74.4414 86.4492 76.8086 84.832 78.8008C83.0977 80.9336 80.8945 82 78.2227 82H64.6875V75.6719H76.2539C78.0117 75.6719 79.2305 75.3203 79.9102 74.6172C80.5898 73.8906 80.9297 72.625 80.9297 70.8203V62.1367H87.2578V71.6992ZM86.168 94.1289C86.168 95.207 85.7695 96.0977 84.9727 96.8008C84.1992 97.5039 83.2617 97.8555 82.1602 97.8555C80.9883 97.8555 79.9805 97.5391 79.1367 96.9062C78.2227 96.2031 77.7656 95.2773 77.7656 94.1289C77.7656 91.7852 79.1016 90.6133 81.7734 90.6133C84.7031 90.6133 86.168 91.7852 86.168 94.1289ZM74.0391 94.1289C74.0391 95.207 73.6406 96.0977 72.8438 96.8008C72.0703 97.5039 71.1328 97.8555 70.0312 97.8555C68.8594 97.8555 67.8516 97.5391 67.0078 96.9062C66.0938 96.2031 65.6367 95.2773 65.6367 94.1289C65.6367 91.7852 66.9727 90.6133 69.6445 90.6133C72.5742 90.6133 74.0391 91.7852 74.0391 94.1289ZM107.754 82C102.41 82 98.6484 80.9688 96.4688 78.9062C95.0156 77.5703 94.2891 75.3789 94.2891 72.332V42.4141H100.617V69.5547C100.617 72.4844 101.109 74.2773 102.094 74.9336C102.703 75.332 104.59 75.5781 107.754 75.6719V82ZM126.527 43.3984C126.527 44.6172 126.082 45.6602 125.191 46.5273C124.324 47.3711 123.281 47.793 122.062 47.793C118.969 47.793 117.422 46.3281 117.422 43.3984C117.422 40.8906 118.91 39.6367 121.887 39.6367C124.98 39.6367 126.527 40.8906 126.527 43.3984ZM134.508 72.0156C134.648 74.7344 133.652 77.1016 131.52 79.1172C129.434 81.0391 127.02 82 124.277 82H105.293V75.6719H124.348C126.668 75.6719 127.828 74.1016 127.828 70.9609C124.547 70.9375 120.832 70.7383 116.684 70.3633C113.191 69.0742 111.445 66.2031 111.445 61.75C111.445 58.6797 112.406 56.207 114.328 54.332C116.25 52.4336 118.746 51.4844 121.816 51.4844C124.324 51.4844 126.621 52.1523 128.707 53.4883C132.059 55.5977 133.863 59.1367 134.121 64.1055L134.508 72.0156ZM127.441 64.9844C127.277 60.3203 125.297 57.9883 121.5 57.9883C118.711 57.9883 117.316 59.1016 117.316 61.3281C117.316 63.1094 117.844 64.2109 118.898 64.6328C119.344 64.8203 120.656 64.9258 122.836 64.9492L127.441 64.9844ZM181.652 81.6836C181.652 87.8945 179.414 92.4648 174.938 95.3945C172.289 97.1289 169.359 97.9961 166.148 97.9961H156.34C152.004 97.9961 148.395 96.3438 145.512 93.0391C142.746 89.875 141.363 86.0898 141.363 81.6836V68.6055H147.305V82.3867C147.305 85.1992 148.336 87.4961 150.398 89.2773C152.367 90.9648 154.77 91.8086 157.605 91.8086H165.762C168.246 91.8086 170.473 91 172.441 89.3828C174.551 87.6953 175.605 85.6328 175.605 83.1953C175.605 81.1094 174.164 79.7383 171.281 79.082C170.508 78.918 169.98 78.8359 169.699 78.8359H160.91V67.9727C160.91 64.7148 161.953 62.0312 164.039 59.9219C166.125 57.7891 168.809 56.7227 172.09 56.7227H179.684L179.93 62.6641H172.336C170.062 62.6641 168.492 63.6719 167.625 65.6875C167.227 66.6719 166.969 69.0742 166.852 72.8945C171.844 72.8945 175.172 73.1992 176.836 73.8086C180.047 75.0273 181.652 77.6523 181.652 81.6836ZM211.395 82.8086C211.395 87.0273 209.801 90.6133 206.613 93.5664C203.449 96.5195 199.746 97.9961 195.504 97.9961H187.312L186.504 91.668H194.484C197.484 91.668 199.969 90.8008 201.938 89.0664C203.906 87.332 204.949 84.9766 205.066 82C199.793 82 195.961 81.2969 193.57 79.8906C190.383 78.0156 188.789 74.6406 188.789 69.7656C188.789 64.4688 190.043 60.7539 192.551 58.6211C194.098 57.3086 196.676 56.6523 200.285 56.6523C205.09 56.6523 208.301 58.668 209.918 62.6992C210.902 65.207 211.395 69.2617 211.395 74.8633V82.8086ZM205.066 75.6719V69.168C205.066 65.043 203.414 62.9805 200.109 62.9805C198.094 62.9805 196.734 63.6602 196.031 65.0195C195.539 66.0039 195.293 67.6328 195.293 69.9062C195.293 72.5781 196.359 74.2891 198.492 75.0391C199.641 75.4609 201.832 75.6719 205.066 75.6719Z" fill="#1893FE"/>
</svg>
