<svg width="34" height="30" viewBox="0 0 34 30" fill="none" xmlns="http://www.w3.org/2000/svg">
<path d="M17.3846 0.230957C13.2552 0.230957 9.87837 3.55308 9.87837 7.61557C9.87837 8.85597 10.1861 10.0098 10.7385 11.0386C8.45625 10.4906 5.6755 10.0771 2.37212 10.0771H0.769226L5.14787 27.3079H6.12524C10.3866 27.3079 13.006 27.9088 14.5307 28.4617C15.2929 28.7405 15.7767 29.0147 16.0554 29.1925C16.3341 29.3703 16.3681 29.3848 16.3681 29.3848L16.72 29.7694H18.0492L18.4011 29.3848C18.4011 29.3848 18.4352 29.3703 18.7138 29.1925C18.9925 29.0147 19.4764 28.7405 20.2385 28.4617C21.7633 27.9088 24.3826 27.3079 28.644 27.3079H29.6214L34 10.0771H32.3971C29.1081 10.0771 26.3324 10.4665 24.0699 11.0002C24.6075 9.98576 24.8909 8.83674 24.8909 7.61557C24.8909 3.55308 21.514 0.230957 17.3846 0.230957ZM17.3846 2.6925C20.1654 2.6925 22.3888 4.88 22.3888 7.61557C22.3888 10.3511 20.1654 12.5386 17.3846 12.5386C14.6039 12.5386 12.3804 10.3511 12.3804 7.61557C12.3804 4.88 14.6039 2.6925 17.3846 2.6925ZM4.01411 12.6925C7.90422 12.88 11.0806 13.5434 13.1623 14.3079C14.8384 14.9233 15.6644 15.3992 16.1336 15.6925V26.4617C15.9087 26.3608 15.7035 26.255 15.4299 26.154C13.7391 25.5387 10.9633 25.0194 7.10262 24.9233L4.01411 12.6925ZM30.7551 12.6925L27.6666 24.9233C23.8059 25.0194 21.0301 25.5387 19.3394 26.154C19.0657 26.255 18.8605 26.3608 18.6357 26.4617V15.6925C19.1048 15.3944 19.9258 14.9137 21.5678 14.3079C23.6348 13.5434 26.8162 12.88 30.7551 12.6925Z" fill="#5FB4FF"/>
</svg>
