<svg width="642" height="664" viewBox="0 0 642 664" fill="none" xmlns="http://www.w3.org/2000/svg">
<path fill-rule="evenodd" clip-rule="evenodd" d="M322.526 0.763966C392.441 -6.49176 455.569 39.2655 511.702 81.5736C566.956 123.219 623.496 171.708 638.841 239.176C653.688 304.454 607.551 364.301 590.745 429.103C572.406 499.813 593.366 590.547 535.988 635.759C478.684 680.913 391.81 663.308 322.526 640.453C265.267 621.565 241.581 555.878 191.601 522.155C138.583 486.383 57.2857 493.541 23.9227 438.975C-10.7985 382.187 -4.31897 305.479 21.6471 244.192C46.5885 185.323 110.172 158.299 159.876 118.085C213.15 74.9841 254.366 7.83747 322.526 0.763966Z" fill="#5FB4FF"/>
<path d="M240.376 165.488L188.94 212.592L236.971 225.595L240.376 165.488Z" fill="#E55C5C"/>
<path d="M356.175 155.982C381.409 149.864 388.962 123.244 378.834 76.1217C370.037 35.1886 346.652 16.3937 308.697 19.737C270.743 16.3937 247.358 35.1886 238.561 76.1217C228.433 123.244 235.994 149.864 261.228 155.982" fill="#36364C"/>
<path d="M367.738 131.015H249.657C237.299 131.015 227.292 120.543 227.292 107.63C227.292 94.7084 237.299 84.2446 249.657 84.2446H367.738C380.096 84.2446 390.103 94.7084 390.103 107.63C390.103 120.543 380.096 131.015 367.738 131.015Z" fill="#FFEED2"/>
<path opacity="0.2" d="M364.878 124.708H252.517C243.504 124.708 236.193 117.064 236.193 107.63C236.193 98.1962 243.504 90.5516 252.517 90.5516H364.878C373.891 90.5516 381.202 98.1962 381.202 107.63C381.202 117.064 373.891 124.708 364.878 124.708Z" fill="#E55C5C"/>
<path d="M391.935 347.12H377.019V253.516H391.935V347.12Z" fill="#595987"/>
<path d="M384.477 501.627C380.355 501.627 377.019 498.139 377.019 493.829V360.81H391.935V493.829C391.935 498.139 388.599 501.627 384.477 501.627Z" fill="#595987"/>
<path d="M233.6 501.627C229.478 501.627 226.134 498.139 226.134 493.829V360.81H241.058V493.829C241.058 498.139 237.714 501.627 233.6 501.627Z" fill="#595987"/>
<path d="M168.364 253.516V493.829C168.364 497.769 165.572 501.022 161.943 501.555C161.606 501.609 161.26 501.627 160.906 501.627C156.784 501.627 153.448 498.139 153.448 493.829V253.516H168.364Z" fill="#36364C"/>
<path d="M456.489 501.627C452.367 501.627 449.031 498.139 449.031 493.829V253.516H463.947V493.829C463.947 498.139 460.611 501.627 456.489 501.627Z" fill="#36364C"/>
<path d="M240.376 347.12H225.46V253.516H240.376V347.12Z" fill="#595987"/>
<path d="M396.653 338.093V355.063C396.653 358.235 394.19 360.81 391.157 360.81H226.238C223.204 360.81 220.742 358.235 220.742 355.063V338.093C220.742 334.912 223.204 332.346 226.238 332.346H391.157C394.19 332.346 396.653 334.912 396.653 338.093Z" fill="#FFB15C"/>
<path d="M482.138 259.263V276.232C482.138 279.404 479.683 281.979 476.642 281.979H140.753C137.711 281.979 135.257 279.404 135.257 276.232V259.263C135.257 256.092 137.711 253.516 140.753 253.516H476.642C479.683 253.516 482.138 256.092 482.138 259.263Z" fill="#FFB15C"/>
<path d="M404.5 253.516H223.36V202.607C223.36 184.102 233.462 168.054 248.214 160.174C254.427 156.858 261.453 154.988 268.911 154.988H348.484C362.881 154.988 375.714 161.963 384.054 172.87C390.302 181.02 394.026 191.358 394.026 202.607L404.5 253.516Z" fill="#E55C5C"/>
<path d="M248.49 210.27H191.472L233.566 171.722L251.506 200.918L248.49 210.27Z" fill="#CC3E3E"/>
<path d="M284.094 228.884C284.094 242.483 273.543 253.516 260.537 253.516H206.604C200.096 253.516 194.211 250.751 189.951 246.297C185.69 241.842 183.046 235.688 183.046 228.884C183.046 215.276 193.598 204.243 206.604 204.243H260.537C267.035 204.243 272.929 207.008 277.19 211.463C281.45 215.917 284.094 222.071 284.094 228.884Z" fill="#E55C5C"/>
<path d="M348.994 230.637V238.589C348.994 246.839 355.38 253.516 363.27 253.516H404.5L367.055 221.655C359.822 215.502 348.994 220.887 348.994 230.637Z" fill="#CC3E3E"/>
<path d="M377.019 325.66H240.376V281.979H377.019V325.66Z" fill="#E55C5C"/>
<path d="M349.193 206.43L387.32 246.305C396.524 255.92 411.439 255.92 420.634 246.305C429.838 236.682 429.838 221.086 420.634 211.463L382.507 171.596C373.312 161.972 358.388 161.972 349.193 171.596C339.989 181.219 339.989 196.815 349.193 206.43Z" fill="#E55C5C"/>
<path d="M284.086 228.306C284.388 242.221 273.309 253.516 260.001 253.516C253.649 253.516 248.49 248.131 248.49 241.48V208.896C248.49 206.33 250.486 204.243 252.941 204.243H260.537C267.035 204.243 272.929 207.008 277.19 211.463C281.329 215.791 283.939 221.728 284.086 228.306Z" fill="#FFEED2"/>
<path d="M384.054 172.87L368.905 204.252H316.561C290.835 204.252 266.88 190.562 252.975 167.927L248.214 160.174C254.427 156.858 261.453 154.988 268.911 154.988H348.484C362.881 154.988 375.714 161.963 384.054 172.87Z" fill="#CC3E3E"/>
<path d="M243.953 153.235L294.611 235.724C294.922 236.23 295.104 236.799 295.138 237.396L295.908 249.865C296.072 252.594 293.298 254.465 290.99 253.164L280.456 247.245C279.955 246.965 279.531 246.558 279.229 246.061L228.562 163.563C227.568 161.945 228.018 159.786 229.573 158.738L239.339 152.177C240.885 151.138 242.959 151.608 243.953 153.235Z" fill="#36364C"/>
<path d="M294.611 235.724C294.922 236.23 295.104 236.8 295.138 237.396L295.648 245.646L295.908 249.865C296.072 252.594 293.298 254.465 290.99 253.164L287.43 251.167L280.456 247.245C279.955 246.965 279.531 246.558 279.229 246.061L294.611 235.724Z" fill="#FFEED2"/>
<path d="M295.648 245.646L295.908 249.866C296.072 252.595 293.298 254.465 290.99 253.164L287.43 251.167L295.648 245.646Z" fill="#36364C"/>
<path d="M288.994 239.501L284.846 242.284L232.382 156.858L236.53 154.066L288.994 239.501Z" fill="#FFCE78"/>
<path d="M349.296 171.144C358.595 161.747 373.536 162.28 382.688 171.849L386.24 175.572C388.772 178.21 388.772 182.502 386.24 185.141L366.018 206.294C361.317 211.21 353.695 211.21 348.994 206.294C344.396 201.487 342.098 195.18 342.098 188.873C342.089 182.439 344.492 175.996 349.296 171.144Z" fill="#FFEED2"/>
<path d="M263.285 210.406H248.49V210.27C248.49 201.731 255.11 194.809 263.285 194.809C267.398 194.809 270.743 198.297 270.743 202.607C270.743 206.918 267.398 210.406 263.285 210.406Z" fill="#FFEED2"/>
<path d="M376.423 173.457L386.888 184.391L386.975 184.291C392.756 178.255 392.756 168.46 386.975 162.424C384.062 159.379 379.344 159.379 376.423 162.424C373.511 165.469 373.511 170.403 376.423 173.457Z" fill="#FFEED2"/>
<path d="M368.905 100.247V125.422C368.905 136.87 364.903 147.334 358.284 155.385C350.221 165.198 338.27 171.406 324.927 171.406H292.468C279.125 171.406 267.174 165.198 259.111 155.385C252.491 147.334 248.49 136.87 248.49 125.422V100.247C248.49 65.4678 275.444 37.2935 308.697 37.2935C325.316 37.2935 340.369 44.3326 351.275 55.727C362.164 67.1214 368.905 82.8621 368.905 100.247Z" fill="#FFEED2"/>
<path d="M353.462 332.346H263.933V303.82H353.462V332.346Z" fill="#36364C"/>
<path d="M358.284 134.521V155.385C356.772 157.229 355.112 158.945 353.341 160.527C345.675 167.313 335.763 171.406 324.927 171.406H292.468C281.631 171.406 271.719 167.313 264.063 160.527C262.282 158.945 260.623 157.229 259.111 155.385V134.521C259.111 130.581 262.17 127.401 265.929 127.401H351.465C355.233 127.401 358.284 130.581 358.284 134.521Z" fill="#4DA38D"/>
<path d="M249.657 84.2446L265.929 127.392" stroke="#4DA38D" stroke-width="4" stroke-linecap="round" stroke-linejoin="round"/>
<path d="M249.657 131.015L267.597 146.494" stroke="#4DA38D" stroke-width="4" stroke-linecap="round" stroke-linejoin="round"/>
<path d="M367.254 84.2446L351.474 127.392" stroke="#4DA38D" stroke-width="4" stroke-linecap="round" stroke-linejoin="round"/>
<path d="M314.202 180.261H303.193C291.604 180.261 282.219 170.448 282.219 158.331V152.692C282.219 152.123 282.66 151.662 283.204 151.662H334.199C334.744 151.662 335.184 152.123 335.184 152.692V158.331C335.184 170.448 325.791 180.261 314.202 180.261Z" fill="#FFEED2"/>
<path d="M367.254 131.015L349.314 146.494" stroke="#4DA38D" stroke-width="4" stroke-linecap="round" stroke-linejoin="round"/>
<path d="M366.986 110.061C359.476 104.919 340.257 90.1543 337.855 72.1185C337.63 70.3926 333.914 69.9498 332.652 71.486L327.666 77.5672C326.733 78.6967 324.201 78.8322 322.982 77.8112C319.284 74.7028 312.569 68.6125 307.876 61.8536C306.727 60.2 302.752 60.6428 302.588 62.45L302.104 67.9619C301.991 69.2631 299.693 70.0131 297.904 69.3354C289.081 65.9921 268.582 56.197 268.582 37.2937C268.582 14.5591 322.395 34.7365 328.435 37.0769C328.798 37.2124 349.132 40.89 349.357 41.125C352.762 44.5948 363.279 62.5765 372.111 73.004C381.841 84.5159 374.599 104.314 371.627 109.482C370.927 110.702 368.395 111.018 366.986 110.061Z" fill="#36364C"/>
<path d="M271.546 49.1309C276.455 67.6004 269.135 87.5789 249.614 109.048C247.747 111.099 244.55 109.843 244.264 106.97C242.605 90.0728 241.369 47.4864 271.546 49.1309Z" fill="#36364C"/>
<path d="M291.025 97.9253C286.505 92.3952 277.933 92.3952 273.413 97.9253C271.858 99.7234 269.809 101.567 268.038 101.115C266.266 100.699 265.843 96.5428 268.427 93.3982C275.504 84.7418 288.925 84.7418 296.003 93.3982C298.587 96.5428 298.163 100.699 296.4 101.115C294.629 101.567 292.572 99.7234 291.025 97.9253Z" fill="#36364C"/>
<path d="M343.99 97.9253C339.462 92.3952 330.898 92.3952 326.378 97.9253C324.823 99.7234 322.775 101.567 321.003 101.115C319.232 100.699 318.808 96.5428 321.392 93.3982C328.47 84.7418 341.89 84.7418 348.968 93.3982C351.552 96.5428 351.128 100.699 349.357 101.115C347.594 101.567 345.537 99.7234 343.99 97.9253Z" fill="#36364C"/>
<path d="M342.729 107.431V113.811C342.729 118.184 339.341 121.735 335.158 121.735C335.037 121.735 334.917 121.726 334.796 121.726C331.641 121.573 328.997 119.395 328.003 116.413C327.727 115.6 327.58 114.723 327.58 113.811V107.431C327.58 104.305 329.317 101.603 331.831 100.32C332.834 99.8048 333.966 99.5156 335.158 99.5156C337.25 99.5156 339.142 100.401 340.516 101.829C341.882 103.266 342.729 105.245 342.729 107.431Z" fill="#36364C"/>
<path d="M341.104 108.136C341.104 109.754 339.557 110.874 338.114 110.305C335.824 109.41 334.009 107.513 333.136 105.118C332.601 103.627 333.603 101.983 335.133 101.965C335.159 101.965 335.176 101.965 335.202 101.965C336.835 101.965 338.304 102.66 339.376 103.772C340.439 104.892 341.104 106.429 341.104 108.136Z" fill="white"/>
<path d="M335.158 117.289C335.158 117.317 335.167 117.344 335.167 117.371C335.305 118.419 334.32 119.295 333.352 118.97C332.151 118.554 331.123 117.75 330.406 116.693C329.783 115.789 330.276 114.497 331.33 114.344C331.564 114.308 331.788 114.299 332.03 114.317C333.586 114.425 334.917 115.672 335.158 117.289Z" fill="white"/>
<path d="M289.789 107.431V113.811C289.789 118.184 286.402 121.735 282.219 121.735C282.098 121.735 281.977 121.726 281.856 121.726C278.702 121.573 276.058 119.395 275.064 116.413C274.787 115.6 274.64 114.723 274.64 113.811V107.431C274.64 104.305 276.377 101.603 278.892 100.32C279.895 99.8048 281.027 99.5156 282.219 99.5156C284.31 99.5156 286.203 100.401 287.577 101.829C288.942 103.266 289.789 105.245 289.789 107.431Z" fill="#36364C"/>
<path d="M288.165 108.136C288.165 109.754 286.618 110.874 285.175 110.305C282.884 109.41 281.07 107.513 280.197 105.118C279.661 103.627 280.664 101.983 282.193 101.965C282.219 101.965 282.236 101.965 282.262 101.965C283.896 101.965 285.365 102.66 286.436 103.772C287.499 104.892 288.165 106.429 288.165 108.136Z" fill="white"/>
<path d="M282.219 117.289C282.219 117.317 282.228 117.344 282.228 117.371C282.366 118.419 281.381 119.295 280.413 118.97C279.212 118.554 278.183 117.75 277.466 116.693C276.844 115.789 277.336 114.497 278.391 114.344C278.615 114.308 278.849 114.299 279.091 114.317C280.646 114.425 281.977 115.672 282.219 117.289Z" fill="white"/>
<path d="M358.284 138.759V149.647H259.111V138.759H358.284Z" fill="#317C67"/>
<path d="M358.284 149.647V155.385C356.772 157.228 355.112 158.945 353.341 160.527H264.063C262.282 158.945 260.623 157.228 259.111 155.385V149.647H358.284Z" fill="#4DA38D"/>
<path d="M353.341 160.527C345.676 167.313 335.763 171.406 324.927 171.406H292.468C281.631 171.406 271.719 167.313 264.063 160.527H353.341Z" fill="#317C67"/>
<path d="M358.284 134.521V138.759H259.111V134.521C259.111 130.581 262.17 127.401 265.929 127.401H351.465C355.233 127.401 358.284 130.581 358.284 134.521Z" fill="#4DA38D"/>
<path opacity="0.2" d="M304.178 112.744L297.826 127.401H319.569L313.208 112.744C311.454 108.687 305.941 108.687 304.178 112.744Z" fill="#E55C5C"/>
<path d="M246.347 53.4141L239.382 55.8719C238.077 56.3328 236.832 54.9593 237.377 53.622C243.072 39.5077 254.211 37.2215 258.169 36.8601C258.964 36.7878 259.586 36.1101 259.629 35.2788C259.828 31.1493 261.505 19.5019 273.793 12.2279C275.064 11.4779 276.567 12.6977 276.161 14.1616L272.367 27.797C266.249 48.2003 257.901 56.7394 247.341 53.4051C247.012 53.3057 246.667 53.2967 246.347 53.4141Z" fill="#36364C"/>
<path d="M396.653 346.578V355.063C396.653 358.235 394.19 360.81 391.157 360.81H226.238C223.204 360.81 220.742 358.235 220.742 355.063V346.578H396.653Z" fill="#F7953C"/>
<path d="M295.501 306.612V476.995C295.501 483.799 292.857 489.952 288.597 494.416C284.345 498.871 278.451 501.627 271.944 501.627C258.929 501.627 248.387 490.603 248.387 476.995V306.612C248.387 299.816 251.022 293.654 255.283 289.199C259.543 284.744 265.428 281.979 271.944 281.979C284.95 281.979 295.501 293.012 295.501 306.612Z" fill="#FFEED2"/>
<path d="M369.579 306.612V476.995C369.579 483.799 366.934 489.952 362.674 494.416C358.413 498.871 352.528 501.627 346.013 501.627C333.007 501.627 322.455 490.603 322.455 476.995V306.612C322.455 299.816 325.1 293.654 329.36 289.199C333.62 284.744 339.505 281.979 346.013 281.979C359.027 281.979 369.579 293.012 369.579 306.612Z" fill="#FFEED2"/>
<path d="M300.954 314.121V343.804C300.954 345.638 299.528 347.12 297.774 347.12H243.547C241.793 347.12 240.376 345.638 240.376 343.804V313.651C240.376 304.913 243.763 296.997 249.251 291.26C254.738 285.513 262.343 281.953 270.751 281.98C271.149 281.98 271.546 281.989 271.944 282.016C288.156 282.73 300.954 297.006 300.954 314.121Z" fill="#36364C"/>
<path d="M377.019 314.121V343.804C377.019 345.638 375.593 347.12 373.839 347.12H319.612C317.858 347.12 316.44 345.638 316.44 343.804V313.651C316.44 304.913 319.828 296.998 325.316 291.26C330.803 285.513 338.408 281.962 346.816 281.98C363.581 282.034 377.019 296.591 377.019 314.121Z" fill="#36364C"/>
<path d="M233.6 490.441H226.238V360.81H233.6V490.441Z" fill="#36364C"/>
<path d="M384.365 490.441H377.011V360.81H384.365V490.441Z" fill="#36364C"/>
<path d="M305.526 267.748H186.218C184.472 267.748 183.046 266.266 183.046 264.431V253.588H308.697V264.431C308.697 266.266 307.28 267.748 305.526 267.748Z" fill="white"/>
<path d="M295.501 403.171H248.387V501.555H290.887C293.436 501.555 295.501 499.395 295.501 496.729V403.171Z" fill="white"/>
<path d="M295.501 452.362V496.657C295.501 497.073 295.45 497.479 295.363 497.868V497.877C294.836 500.036 292.969 501.627 290.748 501.627H248.387V452.362H295.501Z" fill="#E55C5C"/>
<path d="M305.206 486.573V497.678C305.206 497.742 305.206 497.805 305.206 497.868V497.877C305.102 499.974 303.452 501.627 301.43 501.627H239.762C237.671 501.627 235.977 499.865 235.977 497.678V486.573C235.977 474.519 245.327 464.742 256.855 464.742H284.328C295.856 464.742 305.206 474.519 305.206 486.573Z" fill="#E55C5C"/>
<path d="M305.344 492.166V496.657C305.344 497.073 305.293 497.479 305.206 497.868V497.877C305.102 499.973 303.452 501.627 301.43 501.627H239.762C237.671 501.627 235.986 499.865 235.986 497.678V492.166H305.344Z" fill="#CC3E3E"/>
<path d="M322.455 403.243H369.579V501.627H327.07C324.521 501.627 322.455 499.467 322.455 496.802V403.243Z" fill="white"/>
<path d="M322.455 452.281V496.657C322.455 497.064 322.507 497.47 322.602 497.859V497.877C323.121 500.028 324.996 501.627 327.217 501.627H369.656V452.281H322.455Z" fill="#E55C5C"/>
<path d="M322.593 486.546V497.669C322.593 497.732 322.593 497.795 322.602 497.859V497.877C322.697 499.964 324.356 501.627 326.378 501.627H388.15C390.241 501.627 391.935 499.856 391.935 497.669V486.546C391.935 474.474 382.576 464.679 371.022 464.679H343.506C331.961 464.679 322.593 474.474 322.593 486.546Z" fill="#E55C5C"/>
<path d="M322.455 492.148V496.657C322.455 497.064 322.507 497.47 322.602 497.859V497.877C322.697 499.964 324.356 501.627 326.378 501.627H388.15C390.241 501.627 391.935 499.856 391.935 497.669V492.148H322.455Z" fill="#CC3E3E"/>
<path d="M232.918 332.346H225.46V281.979H232.918V332.346Z" fill="#36364C"/>
<path d="M384.477 332.346H377.019V281.979H384.477V332.346Z" fill="#36364C"/>
<path d="M482.138 267.748V276.233C482.138 279.404 479.683 281.98 476.642 281.98H140.753C137.711 281.98 135.257 279.404 135.257 276.233V267.748H482.138Z" fill="#F7953C"/>
<path d="M168.364 281.979V493.829C168.364 497.769 165.573 501.022 161.943 501.555H160.906V281.979H168.364Z" fill="#595987"/>
<path d="M463.947 281.979V493.829C463.947 497.769 461.156 501.022 457.526 501.555H456.489V281.979H463.947Z" fill="#595987"/>
<path d="M295.501 403.171H282.496H248.387V415.089H265.938C275.09 415.089 282.496 422.833 282.496 432.402V452.362H295.501V415.089V403.171Z" fill="#F0F0FF"/>
<path d="M369.579 403.171H356.573H322.455V415.089H340.015C349.158 415.089 356.573 422.833 356.573 432.402V452.362H369.579V415.089V403.171Z" fill="#F0F0FF"/>
<path d="M300.954 314.121V343.804C300.954 345.638 299.537 347.12 297.783 347.12C283.515 347.12 271.944 335.03 271.944 320.103V301.57C271.944 289.615 286.212 284.067 293.6 293.175C298.189 298.832 300.954 306.169 300.954 314.121Z" fill="#595987"/>
<path d="M377.019 314.121V343.804C377.019 345.638 375.593 347.12 373.839 347.12C359.571 347.12 348.009 335.03 348.009 320.103V301.57C348.009 289.615 362.268 284.067 369.665 293.175C374.254 298.832 377.019 306.169 377.019 314.121Z" fill="#595987"/>
<path opacity="0.2" d="M295.501 347.12H281.675H248.387V360.81H266.318C274.804 360.81 281.675 367.993 281.675 376.867V403.171H295.501V360.81V347.12Z" fill="#E55C5C"/>
<path opacity="0.2" d="M369.579 347.12H369.57H355.752H322.455V360.81H340.395C348.873 360.81 355.752 367.993 355.752 376.867V403.171H369.57V360.81H369.579V347.12Z" fill="#E55C5C"/>
<path d="M305.206 486.573V492.166H283.23C276.291 492.166 270.665 486.284 270.665 479.028C270.665 471.139 276.783 464.742 284.328 464.742C295.864 464.742 305.206 474.519 305.206 486.573Z" fill="#FF6E6E"/>
<path d="M391.935 486.546V492.148H369.916C362.968 492.148 357.333 486.257 357.333 478.992C357.333 471.085 363.46 464.679 371.022 464.679C382.576 464.679 391.935 474.474 391.935 486.546Z" fill="#FF6E6E"/>
<path d="M221.104 262.552H192.595C191.601 262.552 190.789 261.712 190.789 260.673C190.789 259.625 191.601 258.784 192.595 258.784H221.104C222.098 258.784 222.902 259.625 222.902 260.673C222.902 261.712 222.098 262.552 221.104 262.552Z" fill="#E1E1FF"/>
<path d="M260.131 262.552H231.621C230.619 262.552 229.815 261.712 229.815 260.673C229.815 259.625 230.619 258.784 231.621 258.784H260.131C261.125 258.784 261.928 259.625 261.928 260.673C261.928 261.712 261.125 262.552 260.131 262.552Z" fill="#E1E1FF"/>
<path d="M299.148 262.552H270.639C269.645 262.552 268.842 261.712 268.842 260.673C268.842 259.625 269.645 258.784 270.639 258.784H299.148C300.142 258.784 300.954 259.625 300.954 260.673C300.954 261.712 300.142 262.552 299.148 262.552Z" fill="#E1E1FF"/>
<path opacity="0.102" d="M509.731 524H107.664C97.2248 524 88.7645 515.154 88.7645 504.247C88.7645 502.802 89.8879 501.627 91.2619 501.627H526.133C527.507 501.627 528.63 502.802 528.63 504.247C528.63 515.154 520.17 524 509.731 524Z" fill="#36364C"/>
</svg>
