<svg width="694" height="649" viewBox="0 0 694 649" fill="none" xmlns="http://www.w3.org/2000/svg">
<path fill-rule="evenodd" clip-rule="evenodd" d="M9.71093 302.865C5.13359 232.264 50.4643 165.524 102.8 117.916C150.23 74.7699 218.43 73.937 280.215 56.7945C340.718 40.0074 402.685 -6.82645 460.003 18.8074C517.326 44.443 514.232 127.652 551.561 178.146C591.183 231.742 676.162 255.325 683.804 321.537C691.441 387.713 627.005 437.376 587.684 491.148C547.176 546.542 518.47 623.106 451.697 638.941C385.165 654.72 325.385 599.215 264.678 567.75C213.102 541.018 165.908 511.791 125.622 469.938C77.4376 419.878 14.2062 372.201 9.71093 302.865Z" fill="#5FB4FF"/>
<path d="M466.102 543.82L594.931 277.02L592.482 265.47L588.245 274.24L195.56 111.55L59.6142 316.99L52.0001 312.93L54.4584 324.48L466.102 543.82Z" fill="#D46B33"/>
<path d="M463.654 532.27L592.482 265.47L193.101 99.9998L52.0001 312.93L463.654 532.27Z" fill="#F59E6E"/>
<path fill-rule="evenodd" clip-rule="evenodd" d="M380.567 178.07C380.567 178.07 378.233 161.7 375.564 158.57C372.905 155.43 366.907 154.04 366.238 157.87C365.578 161.7 364.239 171.8 364.239 171.8L213.993 388.771C213.993 388.771 210.09 397.261 214.088 401.441C218.087 405.621 228.657 407.061 228.657 407.061L380.567 178.07Z" fill="#606062"/>
<path d="M414.458 482.361L232.253 387.44L364.765 177.71L531.014 247.62L414.458 482.361Z" fill="#FEFEFE"/>
<path d="M260.137 377.89L411.665 459.339L411.11 460.479L259.573 379.03L260.137 377.89Z" fill="#D2D3D5"/>
<path d="M270.372 364.31L418.829 441.269L418.294 442.419L269.827 365.46L270.372 364.31Z" fill="#D2D3D5"/>
<path d="M428.72 429.589L277.804 353.271L278.34 352.121L429.256 428.439L428.72 429.589Z" fill="#D2D3D5"/>
<path d="M289.369 338.01L435.999 409.84L435.483 411L288.853 339.17L289.369 338.01Z" fill="#D2D3D5"/>
<path d="M443.451 397.53L296.218 324.41L296.735 323.26L443.977 396.37L443.451 397.53Z" fill="#D2D3D5"/>
<path d="M305.937 308.51L452.557 380.34L452.041 381.49L305.42 309.66L305.937 308.51Z" fill="#D2D3D5"/>
<path d="M460.028 367.39L313.398 298.12L313.905 296.96L460.526 366.22L460.028 367.39Z" fill="#D2D3D5"/>
<path d="M323.097 284.13L467.269 350.19L466.781 351.36L322.609 285.3L323.097 284.13Z" fill="#D2D3D5"/>
<path d="M331.668 270.66L473.994 336.08L473.506 337.25L331.18 271.83L331.668 270.66Z" fill="#D2D3D5"/>
<path d="M339.665 258.47L482.603 321.96L482.125 323.14L339.177 259.65L339.665 258.47Z" fill="#D2D3D5"/>
<path d="M489.184 309.67L345.022 248.099L345.481 246.919L489.643 308.49L489.184 309.67Z" fill="#D2D3D5"/>
<path d="M354.061 234.089L498.233 295.02L497.774 296.21L353.611 235.279L354.061 234.089Z" fill="#D2D3D5"/>
<path d="M502.681 282.1L360.967 221.81L361.426 220.62L503.14 280.91L502.681 282.1Z" fill="#D2D3D5"/>
<path d="M370.629 210.361L508.669 269.37L508.21 270.55L370.169 211.551L370.629 210.361Z" fill="#D2D3D5"/>
<path d="M475.524 246.91L512.333 261.67L511.902 262.86L475.084 248.11L475.524 246.91Z" fill="#D2D3D5"/>
<path d="M515.585 253.891L481.235 241.7L481.627 240.49L515.987 252.671L515.585 253.891Z" fill="#D2D3D5"/>
<path fill-rule="evenodd" clip-rule="evenodd" d="M414.458 482.36L234.96 388.85C234.166 388.78 233.21 387.54 232.253 387.44L232.664 396.3L421.622 494.42L533.884 268.669L531.444 250.709L531.014 247.619L414.458 482.36Z" fill="#D2D3D5"/>
<path fill-rule="evenodd" clip-rule="evenodd" d="M342.783 185.48C342.841 186.33 342.228 187.06 341.415 187.12C340.612 187.18 339.904 186.55 339.847 185.7C339.847 185.68 339.091 177.259 349.345 177.639C350.177 177.679 351.01 177.749 351.823 177.859C356.711 178.519 361.053 180.6 364.133 183.71C367.29 186.88 369.136 191.12 368.974 196.01C368.955 196.55 368.907 197.1 368.84 197.66C368.734 198.5 367.998 199.09 367.194 198.98C366.391 198.87 365.827 198.1 365.932 197.26C365.989 196.8 366.027 196.34 366.037 195.9C366.171 191.94 364.669 188.51 362.096 185.92C359.465 183.27 355.706 181.48 351.44 180.9C350.713 180.8 349.976 180.74 349.24 180.71C342.314 180.45 342.783 185.47 342.783 185.48Z" fill="#96989A"/>
<path fill-rule="evenodd" clip-rule="evenodd" d="M337.57 195.1C337.627 195.95 337.015 196.69 336.202 196.74C335.389 196.8 334.691 196.17 334.633 195.32C334.633 195.3 333.878 186.88 344.122 187.26C344.964 187.3 345.796 187.37 346.6 187.48C351.497 188.14 355.831 190.22 358.92 193.33C362.077 196.5 363.923 200.74 363.76 205.63C363.741 206.17 363.693 206.72 363.627 207.27C363.521 208.11 362.785 208.71 361.981 208.6C361.178 208.49 360.613 207.72 360.719 206.88C360.776 206.42 360.814 205.96 360.824 205.52C360.958 201.56 359.456 198.13 356.883 195.54C354.243 192.89 350.493 191.1 346.227 190.52C345.5 190.42 344.763 190.36 344.027 190.33C337.101 190.07 337.56 195.09 337.57 195.1Z" fill="#96989A"/>
<path fill-rule="evenodd" clip-rule="evenodd" d="M331.467 203.16C331.525 204.01 330.912 204.75 330.109 204.81C329.296 204.87 328.598 204.23 328.54 203.38C328.54 203.36 327.775 194.94 338.029 195.33C338.871 195.36 339.694 195.43 340.507 195.54C345.404 196.21 349.737 198.28 352.827 201.39C355.974 204.57 357.83 208.8 357.658 213.691C357.648 214.231 357.6 214.781 357.533 215.341C357.428 216.181 356.692 216.771 355.888 216.661C355.085 216.551 354.52 215.781 354.616 214.941C354.683 214.481 354.711 214.021 354.731 213.581C354.864 209.62 353.353 206.19 350.79 203.6C348.149 200.95 344.4 199.16 340.124 198.58C339.407 198.48 338.67 198.42 337.924 198.39C331.008 198.13 331.467 203.15 331.467 203.16Z" fill="#96989A"/>
<path fill-rule="evenodd" clip-rule="evenodd" d="M326.13 211.82C326.187 212.66 325.575 213.4 324.762 213.46C323.949 213.52 323.25 212.88 323.193 212.04C323.193 212.01 322.437 203.6 332.682 203.98C333.524 204.01 334.356 204.08 335.159 204.19C340.057 204.86 344.39 206.94 347.48 210.04C350.637 213.22 352.483 217.45 352.32 222.34C352.301 222.89 352.253 223.44 352.186 223.99C352.081 224.83 351.344 225.42 350.541 225.31C349.737 225.2 349.173 224.43 349.278 223.59C349.336 223.13 349.374 222.68 349.383 222.24C349.517 218.28 348.016 214.84 345.442 212.26C342.812 209.6 339.053 207.82 334.786 207.24C334.059 207.14 333.323 207.07 332.586 207.05C325.661 206.79 326.13 211.8 326.13 211.82Z" fill="#96989A"/>
<path fill-rule="evenodd" clip-rule="evenodd" d="M320.601 220.48C320.658 221.32 320.055 222.06 319.242 222.12C318.429 222.18 317.731 221.54 317.674 220.69C317.674 220.67 316.908 212.259 327.163 212.639C328.004 212.669 328.837 212.739 329.64 212.849C334.538 213.52 338.871 215.6 341.961 218.7C345.117 221.88 346.963 226.11 346.801 231C346.782 231.55 346.734 232.1 346.667 232.65C346.562 233.49 345.825 234.08 345.021 233.97C344.218 233.86 343.654 233.09 343.759 232.25C343.816 231.79 343.854 231.34 343.864 230.9C343.998 226.93 342.496 223.5 339.923 220.91C337.283 218.26 333.533 216.48 329.257 215.89C328.54 215.8 327.804 215.73 327.057 215.7C320.142 215.45 320.601 220.46 320.601 220.48Z" fill="#96989A"/>
<path fill-rule="evenodd" clip-rule="evenodd" d="M314.622 229.13C314.68 229.98 314.067 230.72 313.264 230.78C312.451 230.84 311.743 230.2 311.695 229.35C311.686 229.33 310.93 220.91 321.184 221.3C322.026 221.33 322.849 221.4 323.662 221.51C328.55 222.18 332.892 224.25 335.982 227.36C339.129 230.54 340.985 234.77 340.813 239.661C340.794 240.201 340.755 240.751 340.688 241.311C340.583 242.151 339.847 242.741 339.043 242.631C338.24 242.521 337.666 241.751 337.771 240.911C337.828 240.451 337.866 239.991 337.886 239.551C338.02 235.59 336.508 232.16 333.945 229.57C331.305 226.92 327.545 225.13 323.279 224.55C322.562 224.46 321.825 224.39 321.079 224.36C314.153 224.1 314.622 229.12 314.622 229.13Z" fill="#96989A"/>
<path fill-rule="evenodd" clip-rule="evenodd" d="M308.472 237.03C308.529 237.88 307.917 238.61 307.104 238.67C306.3 238.73 305.592 238.09 305.535 237.25C305.535 237.22 304.779 228.81 315.033 229.19C315.866 229.23 316.698 229.3 317.501 229.41C322.399 230.07 326.742 232.15 329.822 235.26C332.978 238.43 334.825 242.66 334.662 247.56C334.643 248.1 334.595 248.65 334.528 249.2C334.423 250.04 333.686 250.64 332.883 250.53C332.079 250.42 331.515 249.65 331.62 248.81C331.678 248.35 331.716 247.89 331.725 247.45C331.859 243.49 330.358 240.06 327.784 237.47C325.154 234.81 321.395 233.03 317.128 232.45C316.401 232.35 315.665 232.29 314.928 232.26C308.003 232 308.472 237.02 308.472 237.03Z" fill="#96989A"/>
<path fill-rule="evenodd" clip-rule="evenodd" d="M303.172 246.491C303.23 247.341 302.617 248.071 301.814 248.131C301.001 248.191 300.293 247.551 300.236 246.711C300.236 246.681 299.48 238.271 309.734 238.651C310.576 238.681 311.399 238.751 312.212 238.871C317.1 239.531 321.442 241.611 324.532 244.721C327.679 247.891 329.535 252.121 329.363 257.021C329.344 257.561 329.305 258.111 329.238 258.661C329.133 259.501 328.397 260.091 327.593 259.991C326.79 259.881 326.216 259.111 326.321 258.271C326.378 257.801 326.417 257.351 326.436 256.911C326.57 252.951 325.058 249.511 322.495 246.931C319.855 244.271 316.095 242.491 311.829 241.911C311.112 241.811 310.375 241.751 309.629 241.721C302.704 241.461 303.172 246.481 303.172 246.491Z" fill="#96989A"/>
<path fill-rule="evenodd" clip-rule="evenodd" d="M297.041 256.75C297.098 257.6 296.486 258.33 295.673 258.39C294.869 258.45 294.162 257.82 294.104 256.97C294.104 256.95 293.349 248.53 303.603 248.91C304.435 248.95 305.267 249.02 306.071 249.13C310.968 249.79 315.311 251.87 318.391 254.98C321.548 258.15 323.394 262.39 323.231 267.279C323.212 267.819 323.164 268.369 323.097 268.919C322.992 269.759 322.256 270.359 321.452 270.249C320.649 270.139 320.084 269.369 320.189 268.529C320.247 268.069 320.285 267.609 320.295 267.169C320.429 263.21 318.927 259.78 316.354 257.19C313.723 254.54 309.964 252.75 305.698 252.17C304.971 252.07 304.234 252.01 303.498 251.98C296.572 251.72 297.041 256.74 297.041 256.75Z" fill="#96989A"/>
<path fill-rule="evenodd" clip-rule="evenodd" d="M291.827 264.77C291.885 265.62 291.273 266.35 290.46 266.41C289.647 266.47 288.948 265.83 288.891 264.99C288.891 264.96 288.126 256.55 298.38 256.93C299.222 256.96 300.054 257.03 300.857 257.14C305.755 257.81 310.088 259.89 313.178 262.99C316.334 266.17 318.181 270.4 318.018 275.3C317.999 275.84 317.951 276.39 317.884 276.94C317.779 277.78 317.042 278.37 316.239 278.26C315.435 278.16 314.871 277.38 314.976 276.55C315.033 276.08 315.072 275.63 315.081 275.19C315.215 271.23 313.713 267.79 311.14 265.21C308.5 262.55 304.751 260.77 300.475 260.19C299.757 260.09 299.021 260.02 298.284 260C291.359 259.74 291.818 264.76 291.827 264.77Z" fill="#96989A"/>
<path fill-rule="evenodd" clip-rule="evenodd" d="M286.299 273.11C286.356 273.95 285.744 274.69 284.94 274.75C284.127 274.81 283.429 274.17 283.372 273.32C283.372 273.3 282.606 264.89 292.861 265.27C293.702 265.3 294.535 265.37 295.338 265.48C300.236 266.15 304.569 268.23 307.658 271.33C310.805 274.51 312.661 278.74 312.489 283.63C312.479 284.17 312.432 284.73 312.365 285.28C312.259 286.12 311.523 286.71 310.719 286.6C309.916 286.49 309.352 285.72 309.457 284.88C309.514 284.42 309.543 283.97 309.562 283.53C309.696 279.57 308.185 276.13 305.621 273.54C302.981 270.89 299.231 269.11 294.955 268.52C294.238 268.43 293.501 268.36 292.755 268.33C285.839 268.08 286.299 273.09 286.299 273.11Z" fill="#96989A"/>
<path fill-rule="evenodd" clip-rule="evenodd" d="M280.32 283.05C280.378 283.89 279.765 284.63 278.962 284.69C278.149 284.75 277.441 284.11 277.384 283.26C277.384 283.24 276.628 274.83 286.882 275.21C287.724 275.24 288.547 275.31 289.36 275.42C294.248 276.09 298.59 278.17 301.67 281.27C304.827 284.45 306.683 288.68 306.511 293.57C306.492 294.12 306.453 294.67 306.386 295.22C306.281 296.06 305.545 296.65 304.741 296.54C303.938 296.43 303.364 295.66 303.469 294.82C303.526 294.36 303.564 293.91 303.584 293.47C303.718 289.51 302.206 286.07 299.643 283.49C297.002 280.83 293.243 279.05 288.977 278.46C288.26 278.37 287.523 278.3 286.777 278.28C279.851 278.02 280.32 283.03 280.32 283.05Z" fill="#96989A"/>
<path fill-rule="evenodd" clip-rule="evenodd" d="M273.299 293.42C273.356 294.27 272.744 295 271.931 295.06C271.128 295.12 270.42 294.48 270.362 293.64C270.362 293.61 269.607 285.2 279.861 285.58C280.703 285.61 281.525 285.69 282.339 285.79C287.226 286.46 291.569 288.54 294.649 291.64C297.806 294.82 299.652 299.05 299.49 303.95C299.47 304.49 299.432 305.039 299.356 305.589C299.25 306.429 298.514 307.019 297.71 306.909C296.907 306.809 296.342 306.039 296.448 305.2C296.505 304.73 296.543 304.28 296.553 303.84C296.696 299.88 295.185 296.44 292.621 293.86C289.981 291.2 286.222 289.42 281.956 288.84C281.229 288.74 280.502 288.68 279.756 288.65C272.83 288.39 273.299 293.41 273.299 293.42Z" fill="#96989A"/>
<path fill-rule="evenodd" clip-rule="evenodd" d="M267.368 302.73C267.426 303.58 266.814 304.31 266.001 304.37C265.187 304.43 264.489 303.8 264.432 302.95C264.432 302.93 263.676 294.509 273.921 294.889C274.763 294.919 275.595 294.999 276.398 295.109C281.296 295.769 285.629 297.849 288.719 300.96C291.875 304.13 293.721 308.37 293.559 313.26C293.54 313.8 293.492 314.35 293.425 314.9C293.32 315.74 292.583 316.34 291.78 316.23C290.976 316.12 290.412 315.35 290.517 314.51C290.574 314.05 290.613 313.59 290.622 313.15C290.756 309.19 289.254 305.76 286.681 303.17C284.041 300.52 280.291 298.729 276.025 298.149C275.298 298.049 274.562 297.989 273.825 297.959C266.9 297.699 267.368 302.72 267.368 302.73Z" fill="#96989A"/>
<path fill-rule="evenodd" clip-rule="evenodd" d="M261.074 313.15C261.132 314 260.519 314.73 259.716 314.79C258.903 314.85 258.205 314.22 258.147 313.37C258.138 313.35 257.382 304.93 267.636 305.31C268.478 305.35 269.301 305.42 270.114 305.53C275.011 306.19 279.344 308.27 282.434 311.38C285.581 314.55 287.437 318.79 287.265 323.68C287.246 324.22 287.207 324.77 287.14 325.32C287.035 326.17 286.299 326.76 285.495 326.65C284.692 326.54 284.127 325.77 284.223 324.93C284.28 324.47 284.319 324.01 284.338 323.57C284.472 319.61 282.96 316.18 280.397 313.59C277.757 310.94 273.997 309.15 269.731 308.57C269.014 308.47 268.277 308.41 267.531 308.38C260.615 308.12 261.074 313.14 261.074 313.15Z" fill="#96989A"/>
<path fill-rule="evenodd" clip-rule="evenodd" d="M254.311 323.42C254.369 324.27 253.757 325 252.953 325.06C252.14 325.12 251.442 324.49 251.384 323.64C251.375 323.62 250.619 315.2 260.873 315.58C261.715 315.61 262.538 315.69 263.351 315.8C268.248 316.46 272.582 318.54 275.671 321.65C278.818 324.82 280.674 329.06 280.502 333.95C280.483 334.49 280.445 335.04 280.378 335.59C280.272 336.43 279.536 337.03 278.732 336.92C277.929 336.81 277.364 336.04 277.46 335.2C277.517 334.74 277.556 334.28 277.575 333.84C277.709 329.88 276.197 326.44 273.634 323.86C270.994 321.2 267.234 319.42 262.968 318.84C262.251 318.74 261.514 318.68 260.768 318.65C253.843 318.39 254.311 323.41 254.311 323.42Z" fill="#96989A"/>
<path fill-rule="evenodd" clip-rule="evenodd" d="M248.792 331.92C248.85 332.77 248.237 333.5 247.424 333.56C246.621 333.62 245.913 332.98 245.855 332.14C245.855 332.11 245.1 323.701 255.354 324.081C256.196 324.111 257.018 324.181 257.832 324.291C262.72 324.961 267.062 327.04 270.142 330.15C273.299 333.32 275.155 337.55 274.983 342.45C274.963 342.99 274.925 343.54 274.849 344.089C274.753 344.929 274.017 345.519 273.203 345.409C272.4 345.309 271.836 344.539 271.941 343.7C271.998 343.23 272.036 342.78 272.056 342.34C272.189 338.38 270.678 334.94 268.115 332.36C265.474 329.7 261.715 327.92 257.449 327.34C256.722 327.24 255.995 327.18 255.249 327.15C248.323 326.89 248.792 331.91 248.792 331.92Z" fill="#96989A"/>
<path fill-rule="evenodd" clip-rule="evenodd" d="M242.316 341.16C242.374 342 241.771 342.74 240.958 342.8C240.145 342.86 239.447 342.22 239.389 341.37C239.389 341.35 238.633 332.94 248.878 333.32C249.72 333.35 250.552 333.42 251.356 333.53C256.253 334.2 260.586 336.28 263.676 339.38C266.833 342.56 268.679 346.79 268.516 351.68C268.497 352.22 268.449 352.779 268.382 353.329C268.277 354.169 267.541 354.759 266.737 354.649C265.934 354.539 265.369 353.769 265.474 352.929C265.532 352.47 265.57 352.02 265.58 351.57C265.714 347.62 264.212 344.18 261.639 341.59C258.999 338.94 255.249 337.15 250.973 336.57C250.256 336.48 249.519 336.41 248.783 336.38C241.857 336.13 242.316 341.14 242.316 341.16Z" fill="#96989A"/>
<path fill-rule="evenodd" clip-rule="evenodd" d="M235.726 350.78C235.783 351.62 235.171 352.36 234.367 352.42C233.554 352.48 232.846 351.84 232.789 350.99C232.789 350.97 232.033 342.56 242.288 342.94C243.129 342.97 243.952 343.04 244.765 343.15C249.653 343.82 253.996 345.9 257.076 349C260.233 352.18 262.088 356.41 261.916 361.3C261.897 361.84 261.859 362.4 261.782 362.95C261.687 363.79 260.95 364.38 260.146 364.27C259.343 364.16 258.769 363.39 258.874 362.55C258.932 362.09 258.97 361.64 258.989 361.2C259.123 357.24 257.612 353.8 255.048 351.21C252.408 348.56 248.649 346.77 244.382 346.19C243.665 346.1 242.928 346.03 242.182 346C235.257 345.74 235.726 350.76 235.726 350.78Z" fill="#96989A"/>
<path fill-rule="evenodd" clip-rule="evenodd" d="M229.967 361.151C230.025 361.991 229.412 362.731 228.609 362.791C227.796 362.851 227.097 362.211 227.04 361.361C227.031 361.341 226.275 352.931 236.529 353.311C237.371 353.341 238.194 353.411 239.007 353.521C243.904 354.191 248.237 356.271 251.327 359.371C254.474 362.551 256.33 366.781 256.158 371.67C256.138 372.21 256.1 372.77 256.033 373.32C255.928 374.16 255.191 374.75 254.388 374.64C253.584 374.53 253.02 373.76 253.116 372.92C253.173 372.46 253.211 372 253.231 371.56C253.364 367.611 251.853 364.171 249.29 361.581C246.649 358.931 242.89 357.141 238.624 356.561C237.907 356.471 237.17 356.401 236.424 356.371C229.498 356.121 229.967 361.131 229.967 361.151Z" fill="#96989A"/>
<path fill-rule="evenodd" clip-rule="evenodd" d="M228.657 407.061C228.657 407.061 230.771 389.64 226.476 385.47C222.181 381.3 220.057 381.53 213.993 388.77C207.938 396.02 208.062 396.08 208.062 396.08C208.062 396.08 211.133 403.11 228.657 407.061Z" fill="#848688"/>
<path d="M419.432 491.82L245.205 398.43L416.983 486.29L415.673 487.17L417.748 489.42L416.82 490.14L419.432 491.82Z" fill="#A9ABAE"/>
<path d="M419.432 491.82L531.98 254.68L416.983 486.29L415.673 487.17L417.748 489.42L416.821 490.14L419.432 491.82Z" fill="#A9ABAE"/>
<path d="M466.102 543.82L54.458 324.48L57.452 336.59L468.178 552.74L593.065 295.25L594.931 277.02L466.102 543.82Z" fill="#C5ECED"/>
<path fill-rule="evenodd" clip-rule="evenodd" d="M306.922 389.27L345.404 363.76C345.404 363.76 348.743 363.81 348.389 365.48C348.035 367.15 347.643 371.6 349.957 373.16C352.282 374.73 353.219 374.95 353.219 374.95C353.219 374.95 351 379.41 352.071 380.97C353.133 382.53 355.783 382.57 355.783 382.57L306.922 389.27Z" fill="#FFCB78"/>
<path fill-rule="evenodd" clip-rule="evenodd" d="M322.648 387.11C322.83 384.15 321.443 381.89 320.18 380.48L306.922 389.27L322.648 387.11Z" fill="#606062"/>
<path fill-rule="evenodd" clip-rule="evenodd" d="M345.404 363.76L479.561 311.339C479.561 311.339 484.946 311.399 487.979 317.959C491.011 324.529 489.385 329.439 489.385 329.439L355.218 382.53C354.386 382.42 352.827 382.08 352.071 380.97C351 379.41 353.219 374.95 353.219 374.95C353.219 374.95 352.282 374.73 349.957 373.16C347.642 371.59 348.035 367.15 348.389 365.48C348.742 363.81 345.404 363.76 345.404 363.76Z" fill="#82D4F7"/>
<path fill-rule="evenodd" clip-rule="evenodd" d="M448.903 345.19C449.095 340.89 448.377 332.91 441.567 326.54L435.119 329.12C437.09 330.13 439.328 332.15 440.974 336.16C442.714 340.41 443.126 344.43 443.078 347.46L448.903 345.19Z" fill="#6B809B"/>
<path fill-rule="evenodd" clip-rule="evenodd" d="M487.979 317.959C484.946 311.399 479.561 311.339 479.561 311.339L441.567 326.55C448.377 332.91 449.095 340.89 448.903 345.19L489.385 329.44C489.385 329.44 491.011 324.53 487.979 317.959Z" fill="#6B809B"/>
<path fill-rule="evenodd" clip-rule="evenodd" d="M438.659 332.1L348.369 365.56C348.025 367.28 347.671 371.62 349.957 373.16C352.282 374.73 353.219 374.95 353.219 374.95L442.284 340.19C441.968 338.89 441.538 337.54 440.974 336.16C440.285 334.48 439.491 333.15 438.659 332.1Z" fill="#62B2D4"/>
<path fill-rule="evenodd" clip-rule="evenodd" d="M444.542 329.92C446.455 332.57 447.574 335.33 448.205 337.88L489.327 321.83C489.04 320.63 488.61 319.34 487.979 317.96C487.338 316.58 486.592 315.48 485.817 314.62L444.542 329.92Z" fill="#848688"/>
<path fill-rule="evenodd" clip-rule="evenodd" d="M489.327 321.83L448.205 337.88C448.903 340.73 448.989 343.31 448.903 345.19L489.385 329.44C489.385 329.44 490.408 326.37 489.327 321.83Z" fill="#A9ABAE"/>
<path fill-rule="evenodd" clip-rule="evenodd" d="M444.542 329.92L485.817 314.619C482.909 311.369 479.551 311.339 479.551 311.339L441.557 326.55C442.724 327.63 443.709 328.76 444.542 329.92Z" fill="#A9ABAE"/>
<path fill-rule="evenodd" clip-rule="evenodd" d="M314.766 393.61L353.793 379.11L489.385 329.44C489.385 329.44 481.924 334.7 484.229 335.95C486.534 337.2 353.793 390.28 353.793 390.28L314.766 393.61Z" fill="#D2D3D5"/>
<path fill-rule="evenodd" clip-rule="evenodd" d="M272.256 193.371L184.894 227.71L183.478 229.01C183.478 229.01 193.503 246.45 195.522 249.64C197.549 252.83 199.023 263.52 199.023 263.52L283.515 220.83C283.515 220.83 286.519 217.15 285.332 213.65C284.146 210.15 276.216 195.771 276.216 195.771C276.216 195.771 275.107 193.521 272.256 193.371Z" fill="#90E653"/>
<path fill-rule="evenodd" clip-rule="evenodd" d="M199.023 263.491C198.937 262.901 197.483 252.74 195.522 249.64C193.503 246.45 183.479 229.01 183.479 229.01C183.479 229.01 181.422 229.72 180.542 231.19C179.662 232.67 178.858 241.7 174.898 245.62C170.938 249.53 161.191 254.11 161.191 254.11C161.191 254.11 164.491 261.201 164.252 262.421C164.022 263.631 164.319 263.821 164.319 263.821C164.319 263.821 173.856 259.871 177.586 259.481C181.326 259.091 189.304 260.781 192.728 262.841C195.541 264.521 198.162 263.811 199.023 263.491Z" fill="#606062"/>
<path fill-rule="evenodd" clip-rule="evenodd" d="M158.742 264.55C159.201 264.43 162.052 263.09 164.252 262.04C164.08 260.74 162.693 257.48 161.851 255.57C158.761 256.91 154.007 258.97 153.232 259.26C152.075 259.7 153.003 260.73 154.38 262.14C155.748 263.54 157.977 264.73 158.742 264.55Z" fill="#90E653"/>
<path fill-rule="evenodd" clip-rule="evenodd" d="M152.084 198.1C152.084 198.1 138.176 207.11 132.399 211.51C126.621 215.92 119.676 221.29 118.825 222.47C117.974 223.64 120.862 233.68 124.583 239.55C128.295 245.42 129.624 245.97 131.538 246.27C133.46 246.58 170.431 230.12 170.431 230.12C170.431 230.12 168.164 222.05 163.066 212.46C157.967 202.86 152.084 198.1 152.084 198.1Z" fill="#606062"/>
<path fill-rule="evenodd" clip-rule="evenodd" d="M170.43 230.12C170.43 230.12 133.459 246.58 131.537 246.27C129.624 245.97 128.294 245.42 124.583 239.55C123.884 238.46 123.224 237.22 122.612 235.93C122.612 235.93 127.624 247.09 130.217 248.72C132.819 250.35 172.716 232.22 172.716 232.22L166.489 219.55C169.196 225.72 170.43 230.12 170.43 230.12Z" fill="#D67B4B"/>
<path fill-rule="evenodd" clip-rule="evenodd" d="M151.989 200.04C151.989 200.04 152.333 206.56 155.891 213C159.45 219.44 165.17 228.959 166.997 229.229C168.814 229.499 168.011 228.169 168.814 227.869C169.618 227.569 156.054 202.13 151.989 200.04Z" fill="#4B4B4D"/>
<path fill-rule="evenodd" clip-rule="evenodd" d="M177.586 259.48C176.104 259.63 173.712 260.35 171.359 261.15C166.739 263.84 161.325 267.05 160.837 267.67C159.976 268.76 160.32 268.76 162.922 268.76C165.524 268.76 169.341 266.94 169.341 266.94C169.341 266.94 176.276 263.5 181.996 264.04C187.726 264.59 188.414 267.13 193.79 267.85C199.176 268.58 203.164 266.04 207.153 264.59C211.142 263.14 285.553 222.7 286.767 221.79C287.274 221.41 286.251 220 284.893 218.5C284.28 219.88 283.515 220.83 283.515 220.83L199.023 263.52C199.023 263.52 199.023 263.51 199.023 263.49C198.162 263.81 195.541 264.52 192.728 262.84C189.304 260.78 181.326 259.09 177.586 259.48Z" fill="#D67B4B"/>
</svg>
