<svg width="646" height="640" viewBox="0 0 646 640" fill="none" xmlns="http://www.w3.org/2000/svg">
<path fill-rule="evenodd" clip-rule="evenodd" d="M597.659 509.228C556.097 569.068 488.545 605.868 417.994 624.055C347.077 642.337 264.146 652.587 204.081 610.687C146.04 570.198 160.584 480.381 124.644 419.419C90.2966 361.16 -7.48316 332.464 0.456607 265.301C8.50487 197.221 108.005 187.898 157.608 140.577C198.879 101.204 212.65 35.2975 265.086 12.8463C320.938 -11.0676 384.077 2.90136 442.806 18.4658C509.131 36.043 584.677 50.5338 622.73 107.629C661.033 165.101 640.929 240.346 636.626 309.278C632.289 378.75 637.367 452.058 597.659 509.228Z" fill="#5FB4FF"/>
<path d="M376.58 497.637C243.199 497.637 135.387 493.252 135.387 487.823C135.387 482.402 243.199 478.009 376.58 478.009C509.962 478.009 617.774 482.402 617.774 487.823C617.774 493.252 509.962 497.637 376.58 497.637Z" fill="#D2CCBE"/>
<path d="M484.458 316.243H348.628C346.31 316.243 344.427 314.265 344.427 311.85V269.76C344.427 267.337 346.31 265.359 348.628 265.359H484.458C490.125 265.359 494.703 270.146 494.703 276.072V305.564C494.703 311.456 490.125 316.243 484.458 316.243Z" fill="#4F96B2"/>
<path d="M494.614 274.633C494.016 269.4 490.207 265.332 485.605 265.332H344.427V274.633H494.614Z" fill="#63BBD6"/>
<path d="M494.614 306.943C494.016 312.175 490.207 316.243 485.605 316.243H344.427V306.943H494.614Z" fill="#326777"/>
<path d="M408.447 265.332H391.887C397.546 265.332 402.125 270.119 402.125 276.037V305.53C402.125 311.456 397.546 316.243 391.887 316.243H408.447C414.115 316.243 418.693 311.456 418.693 305.53V276.037C418.693 270.145 414.115 265.332 408.447 265.332Z" fill="#9CCBDB"/>
<path d="M434.172 265.332H417.603C423.271 265.332 427.849 270.119 427.849 276.037V305.53C427.849 311.456 423.271 316.243 417.603 316.243H434.172C439.831 316.243 444.409 311.456 444.409 305.53V276.037C444.385 270.145 439.806 265.332 434.172 265.332Z" fill="#9CCBDB"/>
<path d="M356.179 265.332H287.179V272.149H290.586V309.392H287.179V316.217H356.179C367.743 316.217 377.096 306.429 377.096 294.346V287.169C377.096 275.146 367.743 265.332 356.179 265.332Z" fill="#418093"/>
<path d="M355.385 272.183H290.553V309.426H355.385C363.394 309.426 369.914 302.635 369.914 294.226V287.349C369.914 278.974 363.394 272.183 355.385 272.183Z" fill="#F6F4E8"/>
<path d="M290.553 275.797H360.815V276.996H290.553V275.797Z" fill="#D1CDCA"/>
<path d="M290.553 283.367H360.815V284.566H290.553V283.367Z" fill="#D1CDCA"/>
<path d="M290.553 290.372H360.815V291.563H290.553V290.372Z" fill="#D1CDCA"/>
<path d="M290.553 297.934H360.815V299.133H290.553V297.934Z" fill="#D1CDCA"/>
<path d="M290.553 304.579H360.815V305.769H290.553V304.579Z" fill="#D1CDCA"/>
<path d="M154.322 472.896L174.666 332.488C175.01 330.09 177.156 328.42 179.474 328.806L219.268 335.117C221.553 335.477 223.159 337.72 222.782 340.144L202.446 480.552C201.586 486.393 196.378 490.426 190.8 489.527L162.905 485.099C157.328 484.209 153.47 478.728 154.322 472.896Z" fill="#96519B"/>
<path d="M192.143 489.621C197.212 489.801 201.586 486.478 202.298 481.691L223.445 335.742L214.657 334.338L192.143 489.621Z" fill="#A854AF"/>
<path d="M161.594 484.773C156.73 483.369 153.47 478.847 154.15 474.06L175.296 328.121L184.076 329.525L161.594 484.773Z" fill="#6E4472"/>
<path d="M213.83 401.947L216.319 384.837C215.459 390.669 210.251 394.702 204.673 393.812L176.779 389.384C171.201 388.485 167.344 383.039 168.204 377.207L165.714 394.317C164.854 400.149 168.711 405.621 174.297 406.495L202.184 410.922C207.761 411.813 213.003 407.779 213.83 401.947Z" fill="#BC7EC1"/>
<path d="M209.997 428.503L212.487 411.393C211.627 417.233 206.418 421.266 200.841 420.367L172.946 415.94C167.368 415.049 163.511 409.603 164.363 403.771L161.881 420.881C161.021 426.713 164.879 432.185 170.456 433.05L198.351 437.477C203.928 438.376 209.137 434.343 209.997 428.503Z" fill="#BC7EC1"/>
<path d="M221.668 347.894L231.995 276.551L225.533 275.532L225.017 279.035L189.8 273.468L190.316 269.966L183.846 268.947L173.519 340.29C171.807 352.227 179.645 363.386 191.054 365.184L197.835 366.254C209.284 368.053 219.923 359.857 221.668 347.894Z" fill="#68376D"/>
<path d="M215.32 346.036L225.017 279.034L189.8 273.468L180.104 340.469C178.9 348.759 184.362 356.509 192.29 357.759L198.785 358.778C206.737 360.037 214.116 354.351 215.32 346.036Z" fill="#F6F4E8"/>
<path d="M221.602 278.512L211.078 351.148L209.948 350.968L220.472 278.333L221.602 278.512Z" fill="#D1CDCA"/>
<path d="M214.46 277.373L203.928 350.009L202.798 349.829L213.322 277.193L214.46 277.373Z" fill="#D1CDCA"/>
<path d="M207.843 276.303L197.319 348.939L196.189 348.759L206.713 276.123L207.843 276.303Z" fill="#D1CDCA"/>
<path d="M200.693 275.198L190.169 347.834L189.039 347.654L199.563 275.018L200.693 275.198Z" fill="#D1CDCA"/>
<path d="M194.411 274.187L183.887 346.823L182.757 346.644L193.281 274.007L194.411 274.187Z" fill="#D1CDCA"/>
<path d="M304.828 372.121H455.335C457.652 372.121 459.544 370.152 459.544 367.728V320.671C459.544 318.247 457.652 316.277 455.335 316.277H304.828C299.169 316.277 294.591 321.056 294.591 326.982V361.442C294.591 367.334 299.193 372.121 304.828 372.121Z" fill="#774B1C"/>
<path d="M294.706 326.442C295.361 320.67 299.538 316.243 304.6 316.243H459.569V326.442H294.706Z" fill="#99612E"/>
<path d="M294.706 361.921C295.361 367.693 299.538 372.12 304.6 372.12H459.569V361.921H294.706Z" fill="#543315"/>
<path d="M319.938 316.243H325.286C319.079 316.243 314.042 321.509 314.042 328.001V360.362C314.042 366.854 319.079 372.12 325.286 372.12H319.938C313.731 372.12 308.694 366.854 308.694 360.362V328.001C308.694 321.509 313.731 316.243 319.938 316.243Z" fill="#B77C4B"/>
<path d="M334.443 316.243H339.791C333.583 316.243 328.546 321.509 328.546 328.001V360.362C328.546 366.854 333.583 372.12 339.791 372.12H334.443C328.235 372.12 323.198 366.854 323.198 360.362V328.001C323.198 321.509 328.235 316.243 334.443 316.243Z" fill="#B77C4B"/>
<path d="M402.182 316.243H407.53C401.322 316.243 396.293 321.509 396.293 328.001V360.362C396.293 366.854 401.322 372.12 407.53 372.12H402.182C395.974 372.12 390.945 366.854 390.945 360.362V328.001C390.945 321.509 395.974 316.243 402.182 316.243Z" fill="#B77C4B"/>
<path d="M416.686 316.243H422.034C415.826 316.243 410.798 321.509 410.798 328.001V360.362C410.798 366.854 415.826 372.12 422.034 372.12H416.686C410.478 372.12 405.441 366.854 405.441 360.362V328.001C405.441 321.509 410.478 316.243 416.686 316.243Z" fill="#B77C4B"/>
<path d="M446.645 316.243H522.394V323.753H518.676V364.61H522.394V372.12H446.645C433.967 372.12 423.697 361.381 423.697 348.134V340.264C423.672 326.982 433.967 316.243 446.645 316.243Z" fill="#513114"/>
<path d="M447.53 323.753H518.675V364.61H447.53C438.717 364.61 431.592 357.168 431.592 347.954V340.409C431.567 331.204 438.717 323.753 447.53 323.753Z" fill="#F7EEC4"/>
<path d="M441.551 327.726H518.676V329.045H441.551V327.726Z" fill="#D3C99F"/>
<path d="M441.551 336.041H518.676V337.36H441.551V336.041Z" fill="#D3C99F"/>
<path d="M441.551 343.706H518.676V345.017H441.551V343.706Z" fill="#D3C99F"/>
<path d="M441.551 352.021H518.676V353.332H441.551V352.021Z" fill="#D3C99F"/>
<path d="M441.551 359.317H518.676V360.636H441.551V359.317Z" fill="#D3C99F"/>
<path d="M498.111 220.099H357.784C355.466 220.099 353.583 218.13 353.583 215.706V173.617C353.583 171.193 355.466 169.224 357.784 169.224H498.111C501.28 169.224 503.86 171.913 503.86 175.235V214.088C503.86 217.41 501.28 220.099 498.111 220.099Z" fill="#DD9F32"/>
<path d="M354.811 170.508V180.262H503.884V175.201C503.884 171.879 501.313 169.19 498.135 169.19H357.817C356.638 169.224 355.557 169.703 354.811 170.508Z" fill="#EDAB4C"/>
<path d="M354.811 218.789V209.036H503.884V214.088C503.884 217.411 501.313 220.1 498.135 220.1H357.817C356.638 220.1 355.557 219.594 354.811 218.789Z" fill="#C48622"/>
<path d="M379.897 169.225H296.335V176.041H299.742V213.285H296.335V220.101H379.897C383.419 220.101 386.253 217.147 386.253 213.464V175.862C386.277 172.179 383.419 169.225 379.897 169.225Z" fill="#A36B19"/>
<path d="M375.294 176.041H299.742V213.283H375.294C377.383 213.283 379.07 211.519 379.07 209.335V179.989C379.07 177.805 377.383 176.041 375.294 176.041Z" fill="#F6F4E8"/>
<path d="M299.744 179.689H370.005V180.887H299.744V179.689Z" fill="#D1CDCA"/>
<path d="M299.742 187.224H370.004V188.424H299.742V187.224Z" fill="#D1CDCA"/>
<path d="M299.742 194.229H370.004V195.428H299.742V194.229Z" fill="#D1CDCA"/>
<path d="M299.742 201.799H370.004V202.99H299.742V201.799Z" fill="#D1CDCA"/>
<path d="M299.742 208.437H370.004V209.635H299.742V208.437Z" fill="#D1CDCA"/>
<path d="M481.46 201.645H432.591C430.445 201.645 428.701 199.821 428.701 197.578V190.907C428.701 188.663 430.445 186.839 432.591 186.839H481.46C483.606 186.839 485.351 188.663 485.351 190.907V197.578C485.351 199.821 483.606 201.645 481.46 201.645Z" fill="#E6B765"/>
<path d="M411.682 201.645H405.302C403.156 201.645 401.412 199.821 401.412 197.578V190.907C401.412 188.663 403.156 186.839 405.302 186.839H411.682C413.828 186.839 415.572 188.663 415.572 190.907V197.578C415.572 199.821 413.828 201.645 411.682 201.645Z" fill="#E6B765"/>
<path d="M527.602 488.721H368.538C365.909 488.721 363.763 486.478 363.763 483.729V436.013C363.763 433.264 365.909 431.02 368.538 431.02H527.602C531.206 431.02 534.122 434.069 534.122 437.837V481.905C534.122 485.638 531.206 488.721 527.602 488.721Z" fill="#EF6352"/>
<path d="M365.139 432.485V443.549H534.122V437.811C534.122 434.043 531.206 430.986 527.602 430.986H368.538C367.227 430.986 366.023 431.56 365.139 432.485Z" fill="#FC877E"/>
<path d="M365.139 487.223V476.158H534.122V481.905C534.122 485.673 531.206 488.721 527.602 488.721H368.538C367.227 488.721 366.023 488.122 365.139 487.223Z" fill="#D35248"/>
<path d="M393.599 430.986H298.882V438.736H302.715V480.946H298.882V488.696H393.599C397.579 488.696 400.814 485.314 400.814 481.152V438.531C400.814 434.369 397.579 430.986 393.599 430.986Z" fill="#CC4E44"/>
<path d="M388.365 438.736H302.715V480.946H388.365C390.741 480.946 392.657 478.942 392.657 476.459V443.198C392.657 440.74 390.741 438.736 388.365 438.736Z" fill="#F6F4E8"/>
<path d="M302.716 442.864H382.363V444.243H302.716V442.864Z" fill="#D1CDCA"/>
<path d="M302.715 451.453H382.362V452.823H302.715V451.453Z" fill="#D1CDCA"/>
<path d="M302.715 459.375H382.362V460.753H302.715V459.375Z" fill="#D1CDCA"/>
<path d="M302.715 467.93H382.362V469.308H302.715V467.93Z" fill="#D1CDCA"/>
<path d="M302.715 475.473H382.362V476.844H302.715V475.473Z" fill="#D1CDCA"/>
<path d="M508.749 467.749H453.361C450.928 467.749 448.955 465.686 448.955 463.142V455.581C448.955 453.038 450.928 450.974 453.361 450.974H508.749C511.182 450.974 513.156 453.038 513.156 455.581V463.142C513.156 465.686 511.182 467.749 508.749 467.749Z" fill="#F28A7D"/>
<path d="M429.618 467.749H422.378C419.946 467.749 417.972 465.686 417.972 463.142V455.581C417.972 453.038 419.946 450.974 422.378 450.974H429.618C432.051 450.974 434.024 453.038 434.024 455.581V463.142C434.024 465.686 432.051 467.749 429.618 467.749Z" fill="#F28A7D"/>
<path d="M501.853 265.333H378.267C375.949 265.333 374.066 263.355 374.066 260.931V224.501C374.066 222.078 375.949 220.099 378.267 220.099H501.853C505.031 220.099 507.603 222.797 507.603 226.111V259.321C507.603 262.635 505.031 265.333 501.853 265.333Z" fill="#6E995B"/>
<path d="M375.147 221.273V229.948H507.603V225.46C507.603 222.497 505.318 220.099 502.484 220.099H377.809C376.777 220.099 375.835 220.553 375.147 221.273Z" fill="#8EBC77"/>
<path d="M375.147 264.168V255.493H507.603V259.98C507.603 262.935 505.318 265.333 502.484 265.333H377.809C376.777 265.333 375.835 264.879 375.147 264.168Z" fill="#4C6D3A"/>
<path d="M397.464 220.099H323.198V226.171H326.204V259.261H323.198V265.333H397.464C400.585 265.333 403.099 262.695 403.099 259.441V226.025C403.099 222.763 400.585 220.099 397.464 220.099Z" fill="#375127"/>
<path d="M393.37 226.171H326.204V259.261H393.345C395.204 259.261 396.695 257.677 396.695 255.759V229.674C396.719 227.764 395.204 226.171 393.37 226.171Z" fill="#F6F4E8"/>
<path d="M326.204 232.757H388.628V233.836H326.204V232.757Z" fill="#D1CDCA"/>
<path d="M326.204 240.387H388.628V241.457H326.204V240.387Z" fill="#D1CDCA"/>
<path d="M326.204 247.117H388.628V248.188H326.204V247.117Z" fill="#D1CDCA"/>
<path d="M326.204 253.009H388.628V254.08H326.204V253.009Z" fill="#D1CDCA"/>
<path d="M486.35 248.942H445.671C443.009 248.942 440.863 246.698 440.863 243.915V240.832C440.863 238.049 443.009 235.805 445.671 235.805H486.35C489.012 235.805 491.157 238.049 491.157 240.832V243.915C491.157 246.664 489.012 248.942 486.35 248.942Z" fill="#B4DBA1"/>
<path d="M424.327 248.942H421.379C418.717 248.942 416.572 246.698 416.572 243.915V240.832C416.572 238.049 418.717 235.805 421.379 235.805H424.327C426.989 235.805 429.135 238.049 429.135 240.832V243.915C429.16 246.664 426.989 248.942 424.327 248.942Z" fill="#B4DBA1"/>
<path d="M232.912 481.211V320.55C232.912 317.527 235.255 315.078 238.146 315.078H281.462C284.345 315.078 286.696 317.527 286.696 320.55V481.245C286.696 485.373 283.493 488.721 279.546 488.721H240.062C236.115 488.721 232.912 485.373 232.912 481.211Z" fill="#22B3B8"/>
<path d="M285.32 316.483H274.992V488.722H280.34C283.862 488.722 286.696 485.733 286.696 482.085V319.951C286.696 318.572 286.18 317.348 285.32 316.483Z" fill="#47D6D6"/>
<path d="M234.288 316.483H244.616V488.722H239.26C235.746 488.722 232.912 485.733 232.912 482.085V319.951C232.912 318.572 233.453 317.348 234.288 316.483Z" fill="#199B9B"/>
<path d="M286.696 345.47V248.942H279.489V252.855H240.119V248.942H232.912V345.496C232.912 349.564 236.057 352.861 239.947 352.861H279.685C283.575 352.826 286.696 349.538 286.696 345.47Z" fill="#188481"/>
<path d="M279.488 340.144V252.856H240.12V340.17C240.12 342.593 241.979 344.537 244.296 344.537H275.312C277.629 344.511 279.488 342.567 279.488 340.144Z" fill="#F6F4E8"/>
<path d="M270.414 252.856H271.676V334.038H270.414V252.856Z" fill="#D1CDCA"/>
<path d="M261.315 252.856H262.577V334.038H261.315V252.856Z" fill="#D1CDCA"/>
<path d="M253.338 252.856H254.6V334.038H253.338V252.856Z" fill="#D1CDCA"/>
<path d="M246.303 252.856H247.557V334.038H246.303V252.856Z" fill="#D1CDCA"/>
<path d="M252.453 458.03V379.511C252.453 374.364 255.14 370.202 258.432 370.202H262.093C265.41 370.202 268.072 374.364 268.072 379.511V458.03C268.072 463.176 265.377 467.329 262.093 467.329H258.432C255.107 467.304 252.453 463.142 252.453 458.03Z" fill="#F9C03B"/>
<path d="M365.737 169.224H470.928V135.57H365.737C361.994 135.57 358.955 138.738 358.955 142.66V162.134C358.955 166.022 361.994 169.224 365.737 169.224Z" fill="#EF6352"/>
<path d="M359.013 141.7C359.447 138.232 362.273 135.534 365.737 135.534H470.929V141.7H359.013Z" fill="#F58172"/>
<path d="M359.013 163.058C359.447 166.526 362.273 169.224 365.737 169.224H470.929V163.058H359.013Z" fill="#CC4040"/>
<path d="M469.126 169.224H541.419V135.568H469.126C465.375 135.568 462.345 138.737 462.345 142.659V162.133C462.345 166.021 465.375 169.224 469.126 169.224Z" fill="#F6F4E8"/>
<path d="M467.013 143.319H538.446V144.03H467.013V143.319Z" fill="#D1CDCA"/>
<path d="M467.013 147.892H538.446V148.611H467.013V147.892Z" fill="#D1CDCA"/>
<path d="M467.013 152.139H538.446V152.859H467.013V152.139Z" fill="#D1CDCA"/>
<path d="M467.013 156.687H538.446V157.406H467.013V156.687Z" fill="#D1CDCA"/>
<path d="M467.013 160.694H538.446V161.414H467.013V160.694Z" fill="#D1CDCA"/>
<path d="M469.126 135.568H548.282V139.996H474.474C470.732 139.996 467.693 143.164 467.693 147.087V157.671C467.693 161.594 470.732 164.762 474.474 164.762H548.282V169.19H469.126C465.375 169.19 462.345 166.021 462.345 162.099V142.625C462.345 138.737 465.375 135.568 469.126 135.568Z" fill="#E24D46"/>
<path d="M385.188 146.787H438.349V156.301H385.188V146.787Z" fill="#F29891"/>
<path d="M491.788 135.568H335.671C332.412 135.568 329.75 132.785 329.75 129.377V104.398C329.75 100.989 332.412 98.2062 335.671 98.2062H491.788C495.047 98.2062 497.709 100.989 497.709 104.398V129.377C497.709 132.785 495.072 135.568 491.788 135.568Z" fill="#EF788B"/>
<path d="M497.709 129.378V128.838H329.75V129.378C329.75 132.786 332.412 135.569 335.671 135.569H491.788C495.072 135.569 497.709 132.786 497.709 129.378Z" fill="#D16278"/>
<path d="M356.064 98.2062H366.965V135.568H356.064V98.2062Z" fill="#F2C0CC"/>
<path d="M374.066 98.2062H384.958V135.568H374.066V98.2062Z" fill="#F2C0CC"/>
<path d="M438.119 98.2062H449.012V135.568H438.119V98.2062Z" fill="#F2C0CC"/>
<path d="M456.112 98.2062H467.013V135.568H456.112V98.2062Z" fill="#F2C0CC"/>
<path d="M602.098 461.798L581.042 346.661L573.032 348.253L573.835 352.587L530.207 361.321L529.404 356.988L521.419 358.573L542.476 473.735L602.098 461.798Z" fill="#8FB8E6"/>
<path d="M573.818 352.578L592.393 454.176L548.782 462.894L530.207 361.296L573.818 352.578Z" fill="#F6F4E8"/>
<path d="M569.56 353.426L586.013 443.412L584.604 443.694L568.151 353.7L569.56 353.426Z" fill="#D1CDCA"/>
<path d="M560.682 355.216L577.135 445.202L575.735 445.484L559.273 355.49L560.682 355.216Z" fill="#D1CDCA"/>
<path d="M552.508 356.826L568.962 446.82L567.561 447.103L551.099 357.108L552.508 356.826Z" fill="#D1CDCA"/>
<path d="M543.63 358.615L560.092 448.61L558.683 448.893L542.23 358.898L543.63 358.615Z" fill="#D1CDCA"/>
<path d="M535.85 360.174L552.311 450.168L550.903 450.442L534.449 360.457L535.85 360.174Z" fill="#D1CDCA"/>
<path d="M544.277 483.549L540.788 464.521L600.411 452.583L603.9 471.612C604.473 474.814 602.467 477.897 599.436 478.488L550.886 488.217C547.799 488.842 544.85 486.744 544.277 483.549Z" fill="#79A7D1"/>
<path d="M588.855 470.507L590.64 480.261L560.575 486.272L558.79 476.518L588.855 470.507Z" fill="#ACCCE8"/>
<path d="M349.717 380.016H515.473V423.091H349.717V380.016Z" fill="#F6F4E8"/>
<path d="M349.717 384.238H515.474V385.608H349.717V384.238Z" fill="#D1CDCA"/>
<path d="M349.717 392.973H515.473V394.343H349.717V392.973Z" fill="#D1CDCA"/>
<path d="M349.717 401.074H515.473V402.453H349.717V401.074Z" fill="#D1CDCA"/>
<path d="M349.717 409.808H515.473V411.187H349.717V409.808Z" fill="#D1CDCA"/>
<path d="M349.717 417.499H515.473V418.877H349.717V417.499Z" fill="#D1CDCA"/>
<path d="M520.363 380.016V372.12H345.794V380.016H352.379H520.363Z" fill="#D7CE93"/>
<path d="M352.379 423.09H345.794V430.986H520.363V423.09H352.379Z" fill="#D7CE93"/>
</svg>
